<svg width="240" height="240" viewBox="0 0 240 240" fill="none" xmlns="http://www.w3.org/2000/svg">
<path d="M100 20C100 8.95435 108.954 0 120 0C131.046 0 140 8.95435 140 20V95C140 97.7615 142.239 100 145 100H220C231.046 100 240 108.954 240 120C240 131.046 231.046 140 220 140H145C142.239 140 140 142.239 140 145V220C140 231.046 131.046 240 120 240C108.954 240 100 231.046 100 220V145C100 142.239 97.7615 140 95 140H20C8.95435 140 0 131.046 0 120C0 108.954 8.95435 100 20 100H95C97.7615 100 100 97.7615 100 95V20Z" fill="white"/>
</svg>
