<?xml version="1.0" encoding="utf-8"?>
<!-- Generator: Adobe Illustrator 25.0.0, SVG Export Plug-In . SVG Version: 6.00 Build 0)  -->
<svg version="1.1" id="Layer_1" xmlns="http://www.w3.org/2000/svg" xmlns:xlink="http://www.w3.org/1999/xlink" x="0px" y="0px"
	 viewBox="0 0 240 240" style="enable-background:new 0 0 240 240;" xml:space="preserve">
<style type="text/css">
	.st0{fill:#FF0081;}
</style>
<path class="st0" d="M228.4,10.9c-7.8-7.8-20.5-7.8-28.3,0l-76.8,76.8c-2,2-5.1,2-7.1,0L40.1,11.5c-7.8-7.8-20.5-7.8-28.3,0
	C4,19.3,4,31.9,11.9,39.7L88,115.9c2,2,2,5.1,0,7.1l-76.2,76.2c-7.8,7.8-7.8,20.5,0,28.3c7.8,7.8,20.5,7.8,28.3,0l76.2-76.2
	c2-2,5.1-2,7.1,0l76.8,76.8c7.8,7.8,20.5,7.8,28.3,0c7.8-7.8,7.8-20.5,0-28.3L151.7,123c-2-2-2-5.1,0-7.1l76.8-76.8
	C236.2,31.3,236.2,18.7,228.4,10.9z"/>
</svg>
