<svg width="240" height="240" viewBox="0 0 240 240" fill="none" xmlns="http://www.w3.org/2000/svg">
<path d="M80.0017 131.705C72.1902 139.516 72.1902 152.18 80.0017 159.991C87.8132 167.802 100.478 167.802 108.29 159.991L234.141 34.1452C241.953 26.3339 241.953 13.6694 234.141 5.85809C226.33 -1.9527 213.665 -1.9527 205.853 5.85809L80.0017 131.705Z" fill="white"/>
<path d="M20.0027 39.9816C8.95557 39.9816 0 48.937 0 59.9836V219.998C0 231.045 8.95557 240 20.0027 240H180.024C191.072 240 200.027 231.045 200.027 219.998V139.991C200.027 128.944 191.072 119.989 180.024 119.989C168.977 119.989 160.021 128.944 160.021 139.991V194.996C160.021 197.758 157.783 199.996 155.021 199.996H45.0054C42.2439 199.996 40.0054 197.758 40.0054 194.996V84.9853C40.0054 82.2238 42.2439 79.9853 45.0054 79.9853H100.013C111.061 79.9853 120.016 71.0302 120.016 59.9836C120.016 48.937 111.061 39.9816 100.013 39.9816H20.0027Z" fill="white"/>
</svg>
