<svg width="320" height="163" viewBox="0 0 320 163" fill="none" xmlns="http://www.w3.org/2000/svg">
<path d="M66.7626 41.8612C69.8321 41.8612 72.1343 39.5569 74.0528 35.7165C74.0528 35.7165 74.0528 35.7165 74.0528 36.1005C74.0528 39.5569 74.8201 41.8612 77.1223 41.8612C79.8082 41.8612 81.3429 39.5569 82.494 36.4846V36.8686C82.494 39.941 83.2614 41.4772 84.7962 41.4772C87.0983 41.4772 89.0168 38.4048 92.0863 30.7238L94.0048 25.7312C94.3885 26.8834 94.7722 27.6515 94.7722 29.1877C94.7722 31.4919 92.47 34.9484 92.47 37.6367C92.47 39.5569 93.2374 41.0931 95.5396 41.0931C99.3765 41.0931 100.911 35.7165 102.83 30.3398C102.83 29.9557 101.679 29.5717 101.679 29.5717C99.7602 34.9484 98.2254 37.2527 97.0743 37.2527C96.6906 37.2527 96.307 36.8686 96.307 36.1005C96.307 34.5643 98.6091 30.7238 98.6091 27.6515C98.6091 24.9631 96.6906 23.0429 95.1559 21.5067C95.9233 19.2024 96.307 16.8981 96.307 13.8257L92.8537 12.6736C92.0863 14.9779 91.7026 16.8981 91.7026 18.4343C91.7026 19.9705 92.0863 21.1226 92.47 22.2748C92.0863 24.5791 91.3189 26.8834 90.5516 29.1877C88.2494 36.1005 86.3309 38.4048 85.9472 38.4048C85.5635 38.4048 85.5635 38.0208 85.5635 37.2527C85.5635 36.8686 85.5635 36.4846 85.5635 36.1005C86.3309 31.4919 87.0983 26.4993 88.6331 20.3545H85.1799L84.7962 23.0429C84.4125 21.1226 83.6451 19.9705 81.7266 19.9705C78.6571 19.9705 75.5875 25.3472 74.4364 30.3398C72.518 34.9484 70.5995 37.6367 67.9137 37.6367C65.6115 37.6367 64.8441 35.3324 64.8441 32.6441C64.8441 32.26 64.8441 32.26 64.8441 31.876C70.2158 31.1079 72.9017 26.4993 72.9017 23.4269C72.9017 21.1226 71.7506 19.5864 69.4484 19.5864C64.4604 19.5864 61.0072 27.2674 61.0072 33.4122C61.0072 38.0208 62.9257 41.8612 66.7626 41.8612ZM82.1103 23.0429C83.2614 23.0429 83.6451 24.195 83.6451 26.1153C83.6451 30.3398 80.9592 38.0208 79.0408 38.0208C78.2734 38.0208 77.8897 36.8686 77.8897 35.7165C77.8897 31.4919 80.1918 23.0429 82.1103 23.0429ZM69.4484 22.6588C69.8321 22.6588 70.2158 23.0429 70.2158 23.811C70.2158 25.3472 68.6811 28.8036 65.2278 30.3398C65.6115 26.4993 67.53 22.6588 69.4484 22.6588ZM320 129.424C320 140.178 315.779 149.395 309.64 155.539L304.652 150.931C308.873 144.402 310.024 135.953 310.024 129.424H320V129.424ZM308.489 103.693C301.966 120.975 295.827 127.888 294.293 127.888C293.525 127.888 293.141 126.736 293.141 124.816C293.141 123.663 293.141 122.895 293.525 121.359C295.444 107.533 298.129 92.5556 302.35 73.7372H292.374L290.839 81.4182C289.688 75.2734 287.002 72.201 281.631 72.201C271.655 72.201 263.213 88.3311 259.76 104.461C255.54 115.214 250.168 127.888 246.715 127.888C244.796 127.888 244.029 124.816 244.029 119.055C244.029 114.062 244.796 106.765 245.947 97.1641C247.482 91.4034 249.017 86.0268 250.168 80.6501C252.854 80.6501 255.156 80.6501 255.923 80.6501L257.074 74.1213C255.923 74.1213 254.005 74.5053 251.703 74.5053C254.005 63.3679 255.54 52.6146 256.307 41.0931H246.331C243.261 55.3029 241.343 64.5201 239.424 74.1213C236.355 74.1213 234.053 74.1213 233.285 74.1213L232.134 80.6501C232.518 80.6501 235.204 80.6501 238.273 80.6501C236.355 89.0991 235.204 97.1641 234.436 104.845C228.297 120.591 223.693 128.272 220.24 128.272C219.089 128.272 217.554 127.504 217.554 123.663C217.554 112.142 226.763 95.628 226.763 82.5703C226.763 76.0415 223.693 72.5851 218.705 72.5851C212.95 72.5851 207.194 76.8096 202.974 83.3384L204.508 74.1213H192.614C191.463 82.5703 189.544 92.9396 187.626 104.461C181.103 121.743 174.964 128.272 173.429 128.272C172.662 128.272 172.278 127.12 172.278 125.2C172.278 124.048 172.278 123.279 172.662 121.743C174.58 107.918 177.266 92.9396 181.487 74.1213H171.511L169.976 81.8022C168.825 75.6575 166.139 72.5851 160.767 72.5851C147.338 72.5851 136.595 101.773 136.595 121.359C136.595 131.728 139.281 139.025 146.187 139.025C154.245 139.025 159.233 131.728 162.302 123.279C162.302 123.663 162.302 124.432 162.302 124.816C162.302 134.417 164.988 138.641 169.209 138.641C173.046 138.641 177.266 134.801 181.871 126.736C180.719 132.881 179.952 137.873 179.952 137.873H192.23L197.986 109.07C202.59 89.4832 208.729 82.9544 212.182 82.9544C213.717 82.9544 214.484 84.1065 214.484 85.6427C214.484 95.628 205.276 111.374 205.276 126.352C205.276 134.801 209.88 138.641 214.868 138.641C223.309 138.641 229.065 129.808 233.669 118.671C233.669 118.671 233.669 119.055 233.669 119.439C233.669 131.344 236.355 139.025 242.494 139.025C249.017 139.025 253.237 134.033 257.842 122.511C257.842 132.497 260.911 139.793 267.434 139.793C275.492 139.793 280.48 132.497 283.549 124.048C283.549 124.432 283.549 125.2 283.549 125.584C283.549 135.185 286.235 139.409 290.456 139.409C296.978 139.409 303.885 129.808 312.326 107.149C312.326 104.845 309.257 103.693 308.489 103.693ZM151.175 126.736C149.257 126.736 148.106 123.663 148.106 119.439C148.106 106.765 155.396 82.1863 161.151 82.1863C164.221 82.1863 165.372 85.6427 165.372 91.0194C165.372 103.693 157.698 126.736 151.175 126.736ZM272.422 126.736C270.504 126.736 269.352 123.663 269.352 119.439C269.352 106.765 276.643 82.1863 282.398 82.1863C285.468 82.1863 286.619 85.6427 286.619 91.0194C287.002 103.693 278.945 126.736 272.422 126.736ZM137.746 77.5777L137.362 67.9765C150.024 52.6146 156.93 35.7165 156.93 20.7386C156.93 13.0576 153.477 5.76072 144.652 5.76072C132.374 5.76072 123.549 19.5865 123.549 58.7593C123.549 63.3679 123.549 67.9765 123.933 73.3532C118.945 77.9618 113.573 82.1863 107.434 85.6427C105.899 66.0563 95.1559 48.7741 72.1343 48.7741C41.8225 48.7741 26.0911 76.0415 26.0911 103.693C26.0911 104.077 26.0911 104.845 26.0911 105.613C18.801 105.229 11.1271 104.461 3.45324 102.925L0 114.062C9.20863 115.598 18.0336 116.367 26.4748 116.367C30.6954 140.562 47.5779 162.068 77.506 162.068C117.41 162.068 137.746 124.816 137.746 83.3384C137.746 81.0341 137.746 79.4979 137.746 77.5777ZM37.6019 102.925C37.6019 78.7298 49.4964 54.9189 71.7506 54.9189C89.7842 54.9189 98.9928 70.6648 98.9928 87.5629C98.9928 88.7151 98.9928 89.4832 98.9928 90.2513C81.7266 99.4684 61.0072 105.229 37.9856 105.613C37.9856 104.845 37.6019 103.693 37.6019 102.925ZM80.5755 154.387C56.4029 154.387 42.9736 136.337 39.1367 115.983C61.0072 114.446 80.9592 108.302 97.458 99.4684C94.7722 110.606 88.2494 120.591 77.8897 126.736L84.7962 137.873C98.2254 130.576 106.283 112.142 107.434 94.0918C113.573 90.2513 119.329 86.0268 124.317 81.4182C124.317 83.3384 124.317 84.8746 124.317 86.7949C124.317 126.352 107.818 154.387 80.5755 154.387ZM135.827 34.9484C135.827 21.1226 137.746 13.4417 144.652 13.4417C148.106 13.4417 149.64 16.5141 149.64 20.3545C149.64 33.4122 145.036 46.4698 136.595 58.3753C136.211 49.1581 135.827 41.0931 135.827 34.9484ZM32.6139 36.1005C31.4628 41.4772 29.9281 45.3177 27.6259 47.2379C25.7074 46.4698 23.789 45.7017 21.8705 45.7017L20.7194 52.2305C23.0216 52.2305 25.7074 51.4624 28.0096 49.9262C30.3117 50.6943 33.765 51.8465 39.5204 51.8465C52.1823 51.8465 59.8561 36.8686 59.8561 23.0429C59.8561 7.29691 49.8801 0 39.1367 0C29.5444 0 19.5683 6.91286 19.5683 19.5864C19.5683 27.2674 23.789 34.9484 32.6139 36.1005ZM39.1367 2.30429C47.5779 2.30429 54.8681 8.83311 54.8681 24.5791C54.8681 36.8686 49.4964 49.9262 39.5204 49.9262C35.6835 49.9262 32.6139 49.1581 30.3117 48.3901C32.6139 45.7017 34.9161 41.8612 36.4508 36.1005C44.1247 35.3324 48.729 29.1877 48.729 23.4269C48.729 21.1226 47.9616 18.4343 46.4269 16.5141L42.9736 19.5864C44.1247 21.1226 44.5084 22.6588 44.5084 24.5791C44.5084 28.4196 41.8225 32.6441 37.2182 33.7962C37.9856 31.1079 38.3693 28.4196 38.753 25.3472C39.5204 16.5141 40.6715 11.5214 42.2062 8.06501L37.9856 6.91286C36.4508 10.3693 35.6835 16.5141 34.5324 24.9631C33.765 28.0355 33.3813 31.1079 32.9976 33.4122C26.8585 32.6441 23.789 26.1153 23.789 19.9705C23.789 9.6012 30.6954 2.30429 39.1367 2.30429Z" fill="white"/>
</svg>
